<svg width="1207" height="731" viewBox="0 0 1207 731" fill="none" xmlns="http://www.w3.org/2000/svg">
<g clip-path="url(#clip0_6_2)">
<rect width="1200" height="720" transform="translate(6.05512) rotate(0.481857)" fill="white"/>
<g clip-path="url(#clip1_6_2)">
<path d="M1210.78 5.93558L1.13477 -2.49516L-3.91368 721.857L1205.73 730.288L1210.78 5.93558Z" fill="#0B6CF7"/>
<path d="M516.655 270.696L524.274 292.789L524.581 292.791L532.507 270.806L535.83 270.829L526.035 296.943L522.762 296.921L513.331 270.672L516.655 270.696ZM539.317 297.036L539.454 277.4L542.471 277.421L542.334 297.057L539.317 297.036ZM541.011 274.138C540.423 274.134 539.917 273.93 539.494 273.527C539.079 273.123 538.873 272.64 538.877 272.078C538.881 271.515 539.093 271.035 539.514 270.638C539.943 270.24 540.451 270.043 541.039 270.047C541.627 270.051 542.129 270.255 542.543 270.659C542.967 271.062 543.177 271.545 543.173 272.108C543.169 272.67 542.952 273.15 542.523 273.548C542.103 273.946 541.599 274.142 541.011 274.138ZM547.86 297.096L547.997 277.46L550.911 277.48L550.891 280.446L551.095 280.447C551.46 279.478 552.113 278.694 553.055 278.096C553.996 277.497 555.055 277.202 556.231 277.21C556.453 277.212 556.73 277.218 557.062 277.229C557.395 277.24 557.646 277.254 557.816 277.272L557.795 280.341C557.693 280.314 557.459 280.274 557.093 280.221C556.735 280.158 556.356 280.126 555.955 280.123C555.001 280.117 554.147 280.311 553.395 280.706C552.65 281.093 552.058 281.634 551.619 282.33C551.188 283.018 550.969 283.804 550.963 284.691L550.877 297.117L547.86 297.096ZM571.161 277.621L571.143 280.178L560.967 280.107L560.985 277.55L571.161 277.621ZM563.984 272.866L567 272.887L566.87 291.603C566.864 292.455 566.983 293.095 567.227 293.523C567.48 293.942 567.802 294.226 568.193 294.374C568.593 294.513 569.014 294.584 569.457 294.587C569.79 294.589 570.062 294.574 570.276 294.542C570.489 294.5 570.66 294.467 570.788 294.443L571.383 297.157C571.177 297.233 570.891 297.307 570.524 297.381C570.157 297.464 569.693 297.503 569.13 297.5C568.278 297.494 567.444 297.305 566.628 296.932C565.821 296.56 565.152 295.997 564.62 295.244C564.097 294.49 563.839 293.542 563.847 292.4L563.984 272.866ZM587.993 289.347L588.074 277.739L591.091 277.76L590.954 297.396L587.937 297.375L587.96 294.051L587.755 294.05C587.288 295.044 586.567 295.887 585.59 296.579C584.614 297.262 583.384 297.599 581.901 297.589C580.674 297.58 579.585 297.304 578.634 296.76C577.683 296.208 576.939 295.385 576.401 294.29C575.863 293.187 575.6 291.8 575.612 290.13L575.699 277.653L578.716 277.674L578.63 289.946C578.62 291.378 579.013 292.523 579.808 293.381C580.612 294.239 581.64 294.672 582.893 294.681C583.643 294.686 584.407 294.499 585.185 294.121C585.972 293.743 586.632 293.16 587.166 292.371C587.709 291.582 587.984 290.574 587.993 289.347ZM602.255 297.935C601.01 297.926 599.883 297.684 598.872 297.208C597.861 296.724 597.06 296.032 596.47 295.133C595.88 294.226 595.589 293.133 595.598 291.854C595.606 290.729 595.834 289.819 596.282 289.123C596.73 288.419 597.326 287.869 598.07 287.474C598.815 287.078 599.635 286.786 600.531 286.596C601.436 286.398 602.345 286.242 603.257 286.129C604.452 285.984 605.42 285.876 606.162 285.804C606.912 285.724 607.459 285.587 607.801 285.394C608.152 285.2 608.329 284.86 608.332 284.375L608.333 284.272C608.342 283.011 608.003 282.029 607.318 281.325C606.641 280.621 605.608 280.265 604.219 280.255C602.779 280.245 601.647 280.552 600.825 281.177C600.002 281.802 599.422 282.472 599.085 283.185L596.228 282.143C596.748 280.953 597.436 280.029 598.293 279.37C599.159 278.703 600.099 278.24 601.115 277.983C602.14 277.718 603.146 277.588 604.135 277.595C604.766 277.6 605.49 277.681 606.307 277.841C607.132 277.991 607.927 278.299 608.691 278.765C609.463 279.23 610.102 279.93 610.607 280.862C611.112 281.795 611.359 283.041 611.348 284.6L611.258 297.537L608.241 297.516L608.259 294.857L608.106 294.856C607.898 295.281 607.554 295.735 607.074 296.217C606.593 296.699 605.955 297.108 605.16 297.444C604.365 297.779 603.397 297.943 602.255 297.935ZM602.734 295.228C603.927 295.236 604.934 295.009 605.756 294.546C606.586 294.083 607.212 293.482 607.635 292.744C608.066 292.005 608.285 291.227 608.29 290.409L608.309 287.647C608.181 287.8 607.898 287.938 607.463 288.063C607.036 288.18 606.541 288.283 605.978 288.373C605.423 288.454 604.881 288.527 604.353 288.591C603.832 288.647 603.41 288.696 603.086 288.736C602.301 288.833 601.567 288.994 600.884 289.219C600.209 289.436 599.661 289.769 599.24 290.218C598.828 290.658 598.619 291.262 598.614 292.029C598.607 293.077 598.989 293.872 599.761 294.415C600.541 294.948 601.532 295.22 602.734 295.228ZM619.964 271.416L619.781 297.597L616.764 297.576L616.947 271.395L619.964 271.416ZM635.841 297.709L636.023 271.528L639.194 271.55L639.031 294.918L651.201 295.003L651.181 297.816L635.841 297.709ZM661.456 298.348C660.212 298.339 659.084 298.097 658.074 297.621C657.063 297.136 656.262 296.445 655.672 295.546C655.081 294.638 654.791 293.545 654.8 292.267C654.808 291.142 655.035 290.232 655.484 289.536C655.932 288.832 656.528 288.282 657.272 287.886C658.016 287.491 658.837 287.198 659.733 287.009C660.638 286.81 661.546 286.655 662.459 286.542C663.653 286.397 664.621 286.288 665.363 286.217C666.114 286.137 666.66 286 667.003 285.806C667.353 285.613 667.531 285.273 667.534 284.787L667.535 284.685C667.543 283.424 667.205 282.441 666.52 281.738C665.843 281.034 664.81 280.677 663.421 280.668C661.98 280.658 660.849 280.965 660.026 281.59C659.204 282.215 658.624 282.884 658.286 283.598L655.43 282.555C655.95 281.366 656.638 280.441 657.495 279.783C658.36 279.115 659.301 278.653 660.317 278.396C661.342 278.13 662.348 278.001 663.337 278.008C663.967 278.012 664.691 278.094 665.508 278.253C666.334 278.404 667.129 278.712 667.893 279.177C668.665 279.643 669.304 280.342 669.809 281.275C670.313 282.207 670.56 283.453 670.55 285.013L670.459 297.95L667.442 297.929L667.461 295.27L667.308 295.269C667.1 295.694 666.756 296.147 666.275 296.63C665.795 297.112 665.157 297.521 664.362 297.856C663.567 298.192 662.598 298.355 661.456 298.348ZM661.935 295.641C663.129 295.649 664.136 295.422 664.957 294.958C665.787 294.496 666.414 293.895 666.836 293.156C667.268 292.418 667.486 291.639 667.492 290.821L667.511 288.06C667.382 288.212 667.1 288.351 666.664 288.476C666.238 288.592 665.742 288.695 665.179 288.785C664.625 288.867 664.083 288.939 663.554 289.004C663.034 289.06 662.612 289.108 662.288 289.149C661.503 289.245 660.769 289.406 660.085 289.632C659.41 289.849 658.863 290.182 658.442 290.63C658.03 291.071 657.821 291.674 657.816 292.441C657.808 293.49 658.191 294.285 658.962 294.827C659.743 295.361 660.734 295.632 661.935 295.641ZM676.375 297.991L676.558 271.81L679.574 271.831L679.507 281.496L679.763 281.497C679.987 281.158 680.297 280.726 680.692 280.2C681.097 279.666 681.671 279.192 682.415 278.78C683.168 278.359 684.184 278.153 685.462 278.162C687.116 278.174 688.57 278.597 689.826 279.433C691.081 280.268 692.057 281.447 692.754 282.969C693.451 284.491 693.792 286.283 693.778 288.345C693.763 290.425 693.397 292.225 692.679 293.745C691.961 295.258 690.973 296.427 689.714 297.253C688.456 298.071 687.008 298.474 685.372 298.463C684.111 298.454 683.102 298.238 682.347 297.816C681.591 297.384 681.011 296.899 680.605 296.359C680.2 295.81 679.888 295.357 679.669 294.997L679.311 294.995L679.29 298.012L676.375 297.991ZM679.409 288.194C679.399 289.677 679.607 290.987 680.034 292.123C680.461 293.251 681.09 294.138 681.92 294.783C682.751 295.419 683.772 295.742 684.982 295.75C686.243 295.759 687.298 295.434 688.146 294.775C689.003 294.108 689.649 293.209 690.083 292.078C690.525 290.939 690.752 289.671 690.761 288.273C690.771 286.892 690.567 285.647 690.148 284.536C689.738 283.416 689.11 282.53 688.262 281.876C687.423 281.214 686.364 280.879 685.085 280.87C683.858 280.861 682.825 281.165 681.985 281.781C681.146 282.389 680.509 283.246 680.075 284.351C679.642 285.447 679.42 286.728 679.409 288.194Z" fill="white"/>
<path d="M476.355 418.23L476.457 403.685L478.218 403.698L478.168 410.913L478.338 410.914L484.923 403.744L487.224 403.76L481.07 410.28L487.122 418.305L484.992 418.291L479.982 411.494L478.15 413.527L478.117 418.243L476.355 418.23ZM495.397 413.903L495.442 407.454L497.118 407.466L497.042 418.375L495.366 418.363L495.379 416.516L495.265 416.516C495.006 417.068 494.605 417.536 494.062 417.921C493.52 418.3 492.837 418.487 492.013 418.482C491.331 418.477 490.726 418.323 490.198 418.021C489.67 417.715 489.256 417.257 488.957 416.649C488.659 416.036 488.512 415.266 488.519 414.338L488.567 407.406L490.243 407.418L490.196 414.236C490.19 415.031 490.408 415.667 490.85 416.144C491.297 416.62 491.868 416.861 492.564 416.866C492.981 416.869 493.405 416.765 493.837 416.555C494.274 416.345 494.641 416.021 494.938 415.583C495.239 415.145 495.392 414.585 495.397 413.903ZM500.112 418.396L500.188 407.487L501.864 407.499L501.788 418.408L500.112 418.396ZM501.053 405.675C500.726 405.673 500.445 405.559 500.21 405.335C499.98 405.111 499.866 404.843 499.868 404.53C499.87 404.218 499.988 403.951 500.221 403.73C500.46 403.509 500.742 403.4 501.069 403.402C501.396 403.405 501.674 403.518 501.905 403.742C502.14 403.966 502.256 404.234 502.254 404.547C502.252 404.859 502.132 405.126 501.893 405.347C501.66 405.568 501.38 405.677 501.053 405.675ZM512.644 410.017L511.135 410.433C511.043 410.181 510.905 409.936 510.722 409.698C510.543 409.456 510.298 409.255 509.987 409.097C509.676 408.938 509.276 408.857 508.788 408.854C508.121 408.849 507.563 408.999 507.116 409.304C506.674 409.604 506.451 409.988 506.448 410.457C506.445 410.874 506.594 411.204 506.895 411.447C507.197 411.691 507.669 411.895 508.312 412.061L509.928 412.47C510.902 412.713 511.626 413.081 512.101 413.572C512.576 414.058 512.81 414.682 512.805 415.445C512.801 416.07 512.617 416.627 512.254 417.117C511.895 417.607 511.395 417.992 510.754 418.271C510.113 418.551 509.369 418.688 508.521 418.682C507.408 418.674 506.489 418.426 505.763 417.938C505.038 417.45 504.581 416.741 504.393 415.812L505.987 415.425C506.134 416.014 506.418 416.456 506.837 416.752C507.261 417.049 507.816 417.2 508.503 417.204C509.284 417.21 509.906 417.048 510.367 416.72C510.834 416.387 511.068 415.986 511.072 415.518C511.074 415.139 510.944 414.821 510.681 414.563C510.417 414.301 510.011 414.104 509.463 413.972L507.648 413.534C506.65 413.29 505.919 412.918 505.454 412.417C504.993 411.912 504.766 411.283 504.771 410.531C504.775 409.915 504.952 409.372 505.301 408.901C505.655 408.43 506.133 408.061 506.736 407.796C507.344 407.53 508.032 407.4 508.799 407.405C509.878 407.413 510.724 407.655 511.336 408.133C511.953 408.611 512.389 409.239 512.644 410.017ZM532.794 404.078L532.693 418.623L530.988 418.611L523.142 407.136L523 407.135L522.92 418.555L521.159 418.543L521.26 403.998L522.965 404.009L530.84 415.513L530.982 415.514L531.061 404.066L532.794 404.078ZM535.99 418.646L536.066 407.737L537.742 407.749L537.666 418.658L535.99 418.646ZM536.931 405.925C536.604 405.923 536.323 405.81 536.088 405.585C535.858 405.361 535.744 405.093 535.746 404.78C535.748 404.468 535.866 404.201 536.099 403.98C536.338 403.759 536.62 403.65 536.947 403.652C537.274 403.655 537.552 403.768 537.783 403.992C538.018 404.216 538.134 404.484 538.132 404.797C538.13 405.109 538.01 405.376 537.771 405.597C537.538 405.818 537.258 405.927 536.931 405.925ZM542.514 404.146L542.412 418.691L540.736 418.679L540.837 404.134L542.514 404.146ZM548.69 418.99C547.999 418.985 547.373 418.851 546.811 418.587C546.249 418.317 545.805 417.933 545.477 417.434C545.149 416.93 544.987 416.322 544.992 415.612C544.997 414.987 545.123 414.481 545.372 414.095C545.621 413.704 545.952 413.398 546.366 413.178C546.779 412.959 547.235 412.796 547.733 412.691C548.236 412.581 548.74 412.494 549.247 412.431C549.911 412.351 550.449 412.291 550.861 412.251C551.278 412.206 551.582 412.13 551.772 412.023C551.967 411.915 552.065 411.727 552.067 411.457L552.067 411.4C552.072 410.699 551.884 410.153 551.503 409.762C551.127 409.372 550.553 409.173 549.782 409.168C548.981 409.162 548.353 409.333 547.896 409.68C547.439 410.028 547.117 410.4 546.929 410.796L545.342 410.217C545.631 409.556 546.013 409.042 546.489 408.676C546.97 408.306 547.493 408.049 548.057 407.906C548.627 407.758 549.186 407.687 549.735 407.69C550.085 407.693 550.488 407.738 550.942 407.827C551.4 407.91 551.842 408.082 552.266 408.34C552.695 408.599 553.05 408.987 553.33 409.505C553.611 410.023 553.748 410.716 553.742 411.582L553.692 418.769L552.016 418.758L552.026 417.28L551.941 417.28C551.826 417.516 551.635 417.768 551.368 418.036C551.101 418.304 550.746 418.531 550.305 418.717C549.863 418.904 549.325 418.995 548.69 418.99ZM548.957 417.486C549.619 417.491 550.179 417.365 550.635 417.107C551.096 416.85 551.444 416.516 551.679 416.106C551.919 415.696 552.04 415.263 552.043 414.809L552.054 413.275C551.983 413.36 551.826 413.437 551.584 413.506C551.347 413.571 551.072 413.628 550.759 413.678C550.451 413.723 550.15 413.764 549.856 413.799C549.567 413.831 549.332 413.857 549.152 413.88C548.716 413.933 548.308 414.023 547.929 414.148C547.554 414.269 547.249 414.454 547.016 414.703C546.787 414.948 546.671 415.283 546.668 415.709C546.664 416.291 546.876 416.733 547.305 417.035C547.738 417.331 548.289 417.482 548.957 417.486ZM556.751 418.791L556.827 407.882L558.503 407.894L558.427 418.802L556.751 418.791ZM557.692 406.07C557.366 406.067 557.085 405.954 556.849 405.73C556.619 405.506 556.505 405.238 556.507 404.925C556.509 404.613 556.627 404.346 556.861 404.125C557.099 403.904 557.381 403.795 557.708 403.797C558.035 403.799 558.313 403.913 558.544 404.137C558.779 404.361 558.895 404.629 558.893 404.942C558.891 405.254 558.771 405.521 558.533 405.742C558.299 405.963 558.019 406.072 557.692 406.07ZM567.796 411.85L567.785 413.413L561.422 413.369L561.433 411.806L567.796 411.85ZM582.559 404.425L582.457 418.97L580.753 418.958L572.906 407.483L572.764 407.482L572.685 418.902L570.924 418.89L571.025 404.344L572.729 404.356L580.604 415.86L580.746 415.861L580.826 404.413L582.559 404.425ZM585.754 418.993L585.831 408.084L587.507 408.096L587.431 419.005L585.754 418.993ZM586.695 406.272C586.369 406.27 586.088 406.156 585.853 405.932C585.622 405.708 585.508 405.44 585.51 405.127C585.512 404.815 585.63 404.548 585.864 404.327C586.102 404.106 586.385 403.997 586.711 403.999C587.038 404.001 587.317 404.115 587.547 404.339C587.782 404.563 587.899 404.831 587.896 405.144C587.894 405.456 587.774 405.723 587.536 405.944C587.302 406.165 587.022 406.274 586.695 406.272ZM592.278 404.493L592.177 419.038L590.5 419.026L590.602 404.481L592.278 404.493ZM598.455 419.337C597.764 419.332 597.137 419.198 596.575 418.933C596.014 418.664 595.569 418.28 595.241 417.781C594.913 417.276 594.752 416.669 594.757 415.959C594.761 415.334 594.888 414.828 595.137 414.442C595.386 414.05 595.717 413.745 596.13 413.525C596.544 413.306 596.999 413.143 597.497 413.038C598 412.927 598.505 412.841 599.012 412.778C599.675 412.698 600.213 412.638 600.625 412.598C601.042 412.553 601.346 412.477 601.536 412.37C601.731 412.262 601.829 412.073 601.831 411.804L601.832 411.747C601.837 411.046 601.649 410.5 601.268 410.109C600.892 409.718 600.318 409.52 599.546 409.515C598.746 409.509 598.117 409.68 597.66 410.027C597.203 410.375 596.881 410.746 596.694 411.143L595.107 410.564C595.395 409.903 595.778 409.389 596.254 409.023C596.735 408.652 597.257 408.396 597.822 408.253C598.391 408.105 598.95 408.033 599.499 408.037C599.85 408.04 600.252 408.085 600.706 408.174C601.165 408.257 601.606 408.428 602.031 408.687C602.46 408.946 602.814 409.334 603.095 409.852C603.375 410.37 603.513 411.062 603.507 411.929L603.456 419.116L601.78 419.105L601.791 417.627L601.705 417.627C601.59 417.863 601.399 418.115 601.132 418.383C600.865 418.651 600.511 418.878 600.069 419.064C599.627 419.251 599.089 419.341 598.455 419.337ZM598.721 417.833C599.384 417.838 599.943 417.712 600.4 417.454C600.861 417.197 601.209 416.863 601.444 416.453C601.683 416.043 601.805 415.61 601.808 415.156L601.819 413.622C601.747 413.706 601.59 413.784 601.348 413.853C601.111 413.917 600.836 413.975 600.523 414.025C600.215 414.07 599.914 414.11 599.62 414.146C599.331 414.177 599.097 414.204 598.917 414.227C598.481 414.28 598.073 414.37 597.693 414.495C597.318 414.615 597.014 414.8 596.78 415.05C596.551 415.294 596.435 415.63 596.432 416.056C596.428 416.638 596.64 417.08 597.069 417.381C597.503 417.678 598.053 417.829 598.721 417.833ZM606.516 419.138L606.592 408.229L608.268 408.24L608.192 419.149L606.516 419.138ZM607.457 406.417C607.13 406.414 606.849 406.301 606.614 406.077C606.383 405.853 606.269 405.584 606.271 405.272C606.274 404.959 606.391 404.693 606.625 404.472C606.863 404.251 607.146 404.142 607.472 404.144C607.799 404.146 608.078 404.259 608.308 404.484C608.543 404.708 608.66 404.976 608.658 405.289C608.656 405.601 608.535 405.868 608.297 406.089C608.063 406.31 607.783 406.419 607.457 406.417ZM617.114 419.211L617.215 404.666L618.976 404.679L618.926 411.894L619.097 411.896L625.681 404.725L627.982 404.741L621.828 411.261L627.881 419.286L625.75 419.272L620.74 412.475L618.908 414.508L618.875 419.224L617.114 419.211ZM633.704 419.554C632.653 419.547 631.748 419.309 630.989 418.839C630.235 418.365 629.655 417.708 629.249 416.867C628.847 416.021 628.651 415.04 628.658 413.922C628.666 412.805 628.877 411.822 629.29 410.972C629.708 410.118 630.285 409.455 631.022 408.981C631.764 408.504 632.628 408.268 633.613 408.275C634.181 408.279 634.741 408.378 635.294 408.571C635.847 408.764 636.349 409.075 636.8 409.505C637.252 409.929 637.61 410.49 637.875 411.188C638.14 411.886 638.269 412.744 638.262 413.762L638.257 414.472L629.848 414.414L629.858 412.965L636.563 413.012C636.567 412.396 636.448 411.846 636.205 411.361C635.967 410.877 635.624 410.493 635.176 410.211C634.733 409.928 634.208 409.785 633.602 409.781C632.935 409.776 632.356 409.938 631.866 410.266C631.381 410.589 631.006 411.013 630.742 411.536C630.478 412.06 630.344 412.623 630.339 413.224L630.333 414.19C630.327 415.014 630.464 415.713 630.744 416.288C631.029 416.858 631.426 417.294 631.935 417.596C632.445 417.893 633.038 418.044 633.715 418.049C634.155 418.052 634.553 417.993 634.909 417.872C635.27 417.747 635.582 417.56 635.844 417.311C636.106 417.057 636.309 416.741 636.454 416.363L638.07 416.829C637.896 417.377 637.606 417.858 637.201 418.272C636.795 418.681 636.296 418.999 635.703 419.227C635.109 419.45 634.443 419.559 633.704 419.554ZM641 419.378L641.101 404.833L642.777 404.844L642.74 410.214L642.882 410.215C643.006 410.026 643.179 409.786 643.398 409.494C643.623 409.197 643.942 408.934 644.356 408.705C644.774 408.471 645.338 408.357 646.048 408.362C646.967 408.368 647.775 408.603 648.473 409.068C649.17 409.532 649.712 410.187 650.1 411.032C650.487 411.878 650.676 412.873 650.668 414.019C650.66 415.174 650.457 416.174 650.058 417.019C649.659 417.859 649.11 418.509 648.411 418.968C647.711 419.422 646.907 419.646 645.998 419.64C645.297 419.635 644.737 419.515 644.317 419.28C643.898 419.041 643.575 418.771 643.35 418.471C643.125 418.166 642.951 417.914 642.83 417.714L642.631 417.713L642.619 419.389L641 419.378ZM642.686 413.935C642.68 414.759 642.796 415.486 643.033 416.118C643.27 416.745 643.619 417.237 644.081 417.595C644.542 417.949 645.109 418.128 645.781 418.133C646.482 418.138 647.068 417.957 647.54 417.591C648.016 417.22 648.374 416.721 648.615 416.093C648.861 415.46 648.987 414.755 648.992 413.979C648.998 413.212 648.884 412.52 648.652 411.903C648.424 411.281 648.075 410.788 647.604 410.425C647.137 410.057 646.549 409.871 645.839 409.866C645.157 409.861 644.583 410.03 644.117 410.372C643.65 410.71 643.297 411.186 643.056 411.8C642.815 412.409 642.691 413.121 642.686 413.935ZM656.403 419.741C655.711 419.736 655.085 419.602 654.523 419.337C653.962 419.068 653.517 418.684 653.189 418.184C652.861 417.68 652.7 417.073 652.704 416.363C652.709 415.738 652.835 415.232 653.084 414.846C653.333 414.454 653.665 414.149 654.078 413.929C654.491 413.709 654.947 413.547 655.445 413.442C655.948 413.331 656.453 413.245 656.96 413.182C657.623 413.102 658.161 413.041 658.573 413.002C658.99 412.957 659.294 412.881 659.484 412.774C659.679 412.666 659.777 412.477 659.779 412.207L659.779 412.151C659.784 411.45 659.596 410.904 659.216 410.513C658.839 410.122 658.266 409.924 657.494 409.919C656.694 409.913 656.065 410.084 655.608 410.431C655.151 410.778 654.829 411.15 654.641 411.547L653.055 410.967C653.343 410.307 653.726 409.793 654.202 409.427C654.683 409.056 655.205 408.8 655.77 408.657C656.339 408.509 656.898 408.437 657.447 408.441C657.798 408.444 658.2 408.489 658.654 408.577C659.112 408.661 659.554 408.832 659.978 409.091C660.407 409.35 660.762 409.738 661.043 410.256C661.323 410.774 661.46 411.466 661.454 412.333L661.404 419.52L659.728 419.508L659.738 418.031L659.653 418.031C659.538 418.267 659.347 418.519 659.08 418.787C658.813 419.055 658.458 419.282 658.017 419.468C657.575 419.654 657.037 419.745 656.403 419.741ZM656.669 418.237C657.332 418.242 657.891 418.115 658.348 417.858C658.809 417.601 659.157 417.267 659.392 416.857C659.631 416.447 659.753 416.014 659.756 415.56L659.766 414.026C659.695 414.11 659.538 414.187 659.296 414.257C659.059 414.321 658.784 414.379 658.471 414.429C658.163 414.474 657.862 414.514 657.568 414.55C657.279 414.581 657.044 414.608 656.864 414.63C656.428 414.684 656.021 414.774 655.641 414.899C655.266 415.019 654.962 415.204 654.728 415.454C654.499 415.698 654.383 416.034 654.38 416.46C654.376 417.042 654.588 417.484 655.017 417.785C655.451 418.082 656.001 418.232 656.669 418.237ZM666.185 412.991L666.14 419.553L664.463 419.541L664.54 408.633L666.159 408.644L666.147 410.348L666.289 410.349C666.549 409.797 666.94 409.355 667.463 409.022C667.986 408.685 668.66 408.519 669.484 408.525C670.222 408.53 670.867 408.686 671.419 408.993C671.971 409.295 672.399 409.753 672.702 410.366C673.006 410.974 673.154 411.742 673.148 412.67L673.1 419.602L671.424 419.59L671.471 412.772C671.477 411.915 671.259 411.246 670.817 410.764C670.376 410.278 669.767 410.033 668.99 410.027C668.455 410.024 667.976 410.136 667.553 410.365C667.135 410.594 666.803 410.931 666.559 411.374C666.314 411.817 666.19 412.356 666.185 412.991ZM680.536 423.972C679.726 423.966 679.031 423.857 678.45 423.645C677.869 423.437 677.385 423.164 677 422.825C676.618 422.491 676.315 422.134 676.091 421.753L677.432 420.825C677.583 421.025 677.773 421.254 678.003 421.511C678.233 421.773 678.549 422 678.95 422.192C679.356 422.389 679.888 422.49 680.546 422.495C681.427 422.501 682.155 422.293 682.731 421.871C683.307 421.448 683.598 420.783 683.604 419.874L683.619 417.658L683.477 417.657C683.353 417.855 683.176 418.1 682.947 418.392C682.722 418.679 682.398 418.935 681.975 419.159C681.557 419.379 680.993 419.486 680.283 419.481C679.402 419.475 678.613 419.261 677.915 418.84C677.222 418.418 676.675 417.808 676.273 417.01C675.876 416.212 675.682 415.245 675.689 414.108C675.697 412.991 675.901 412.019 676.299 411.193C676.698 410.363 677.249 409.723 677.953 409.273C678.657 408.819 679.469 408.595 680.387 408.601C681.097 408.606 681.66 408.728 682.075 408.968C682.495 409.203 682.815 409.47 683.035 409.77C683.26 410.065 683.434 410.308 683.556 410.498L683.726 410.499L683.738 408.766L685.358 408.778L685.279 419.999C685.273 420.937 685.054 421.697 684.624 422.281C684.199 422.87 683.628 423.3 682.911 423.569C682.199 423.844 681.407 423.978 680.536 423.972ZM680.521 417.977C681.193 417.982 681.762 417.832 682.228 417.527C682.694 417.223 683.05 416.783 683.296 416.207C683.541 415.631 683.667 414.94 683.672 414.135C683.678 413.349 683.564 412.655 683.332 412.052C683.099 411.449 682.752 410.976 682.291 410.631C681.829 410.287 681.257 410.113 680.575 410.108C679.865 410.103 679.272 410.279 678.796 410.635C678.325 410.992 677.969 411.472 677.728 412.077C677.492 412.681 677.371 413.353 677.366 414.091C677.361 414.849 677.474 415.52 677.707 416.104C677.944 416.683 678.296 417.14 678.763 417.475C679.234 417.805 679.82 417.972 680.521 417.977ZM696.136 411.296L694.627 411.712C694.534 411.46 694.396 411.215 694.213 410.977C694.035 410.735 693.79 410.534 693.479 410.376C693.167 410.217 692.768 410.136 692.28 410.133C691.613 410.128 691.055 410.278 690.608 410.583C690.165 410.883 689.943 411.267 689.939 411.736C689.936 412.153 690.086 412.483 690.387 412.726C690.688 412.97 691.16 413.174 691.803 413.34L693.42 413.749C694.393 413.992 695.118 414.36 695.592 414.851C696.067 415.337 696.302 415.961 696.297 416.723C696.292 417.348 696.109 417.906 695.745 418.396C695.387 418.886 694.887 419.271 694.246 419.55C693.605 419.83 692.86 419.967 692.013 419.961C690.9 419.953 689.981 419.705 689.255 419.217C688.529 418.729 688.073 418.02 687.885 417.091L689.479 416.704C689.626 417.293 689.909 417.735 690.329 418.031C690.753 418.328 691.308 418.479 691.995 418.483C692.776 418.489 693.397 418.327 693.859 417.999C694.325 417.666 694.56 417.265 694.563 416.797C694.566 416.418 694.436 416.1 694.172 415.842C693.909 415.58 693.503 415.383 692.955 415.251L691.14 414.812C690.142 414.569 689.411 414.197 688.946 413.696C688.485 413.191 688.257 412.562 688.263 411.809C688.267 411.194 688.444 410.651 688.792 410.18C689.146 409.708 689.625 409.34 690.228 409.074C690.836 408.809 691.523 408.679 692.29 408.684C693.37 408.692 694.216 408.934 694.828 409.412C695.445 409.89 695.881 410.518 696.136 411.296ZM702.007 420.059C701.316 420.054 700.689 419.919 700.128 419.655C699.566 419.386 699.121 419.002 698.793 418.502C698.465 417.998 698.304 417.391 698.309 416.681C698.313 416.056 698.44 415.55 698.689 415.163C698.938 414.772 699.269 414.467 699.682 414.247C700.096 414.027 700.552 413.865 701.049 413.759C701.552 413.649 702.057 413.563 702.564 413.5C703.228 413.419 703.765 413.359 704.178 413.319C704.595 413.275 704.898 413.199 705.088 413.091C705.283 412.984 705.382 412.795 705.383 412.525L705.384 412.469C705.389 411.768 705.201 411.222 704.82 410.831C704.444 410.44 703.87 410.242 703.098 410.237C702.298 410.231 701.669 410.402 701.212 410.749C700.755 411.096 700.433 411.468 700.246 411.865L698.659 411.285C698.948 410.624 699.33 410.111 699.806 409.745C700.287 409.374 700.81 409.117 701.374 408.975C701.943 408.827 702.502 408.755 703.052 408.759C703.402 408.761 703.804 408.807 704.258 408.895C704.717 408.979 705.158 409.15 705.583 409.409C706.012 409.667 706.367 410.056 706.647 410.574C706.928 411.092 707.065 411.784 707.059 412.651L707.009 419.838L705.333 419.826L705.343 418.349L705.258 418.348C705.142 418.584 704.951 418.836 704.684 419.104C704.417 419.372 704.063 419.6 703.621 419.786C703.179 419.972 702.641 420.063 702.007 420.059ZM702.273 418.555C702.936 418.56 703.496 418.433 703.952 418.176C704.413 417.919 704.761 417.585 704.996 417.175C705.235 416.764 705.357 416.332 705.36 415.878L705.371 414.343C705.299 414.428 705.142 414.505 704.9 414.575C704.663 414.639 704.388 414.696 704.075 414.746C703.767 414.792 703.466 414.832 703.172 414.868C702.883 414.899 702.649 414.926 702.469 414.948C702.033 415.002 701.625 415.092 701.245 415.217C700.87 415.337 700.566 415.522 700.332 415.771C700.103 416.016 699.987 416.351 699.984 416.778C699.98 417.36 700.193 417.802 700.621 418.103C701.055 418.4 701.606 418.55 702.273 418.555ZM713.276 420.137C712.585 420.133 711.959 419.998 711.397 419.734C710.835 419.465 710.391 419.08 710.063 418.581C709.735 418.077 709.573 417.469 709.578 416.759C709.582 416.134 709.709 415.628 709.958 415.242C710.207 414.851 710.538 414.545 710.952 414.326C711.365 414.106 711.821 413.943 712.319 413.838C712.821 413.728 713.326 413.641 713.833 413.579C714.497 413.498 715.035 413.438 715.447 413.398C715.864 413.354 716.167 413.278 716.358 413.17C716.552 413.062 716.651 412.874 716.653 412.604L716.653 412.547C716.658 411.846 716.47 411.3 716.089 410.91C715.713 410.519 715.139 410.321 714.367 410.315C713.567 410.31 712.939 410.48 712.482 410.828C712.025 411.175 711.703 411.547 711.515 411.943L709.928 411.364C710.217 410.703 710.599 410.189 711.075 409.823C711.556 409.453 712.079 409.196 712.643 409.053C713.212 408.906 713.772 408.834 714.321 408.838C714.671 408.84 715.073 408.885 715.527 408.974C715.986 409.057 716.428 409.229 716.852 409.487C717.281 409.746 717.636 410.134 717.916 410.652C718.197 411.17 718.334 411.863 718.328 412.729L718.278 419.917L716.602 419.905L716.612 418.428L716.527 418.427C716.412 418.663 716.22 418.915 715.953 419.183C715.686 419.451 715.332 419.678 714.89 419.864C714.449 420.051 713.911 420.142 713.276 420.137ZM713.542 418.633C714.205 418.638 714.765 418.512 715.221 418.255C715.682 417.997 716.03 417.664 716.265 417.253C716.505 416.843 716.626 416.411 716.629 415.956L716.64 414.422C716.568 414.507 716.412 414.584 716.17 414.653C715.932 414.718 715.657 414.775 715.345 414.825C715.036 414.87 714.736 414.911 714.442 414.946C714.153 414.978 713.918 415.004 713.738 415.027C713.302 415.081 712.894 415.17 712.514 415.295C712.14 415.416 711.835 415.601 711.602 415.85C711.373 416.095 711.257 416.43 711.254 416.856C711.25 417.438 711.462 417.88 711.891 418.182C712.324 418.478 712.875 418.629 713.542 418.633ZM723.059 413.387L723.013 419.95L721.337 419.938L721.413 409.029L723.032 409.04L723.021 410.745L723.163 410.746C723.422 410.194 723.813 409.751 724.337 409.419C724.86 409.081 725.533 408.916 726.357 408.921C727.096 408.927 727.741 409.083 728.293 409.389C728.845 409.692 729.272 410.149 729.576 410.762C729.88 411.37 730.028 412.138 730.022 413.066L729.973 419.998L728.297 419.986L728.345 413.168C728.351 412.311 728.133 411.642 727.691 411.161C727.249 410.675 726.64 410.429 725.864 410.424C725.329 410.42 724.85 410.533 724.427 410.762C724.008 410.991 723.677 411.327 723.432 411.77C723.188 412.214 723.063 412.753 723.059 413.387Z" fill="white"/>
</g>
</g>
<defs>
<clipPath id="clip0_6_2">
<rect width="1200" height="720" fill="white" transform="translate(6.05512) rotate(0.481857)"/>
</clipPath>
<clipPath id="clip1_6_2">
<rect width="1209.67" height="724.37" fill="white" transform="translate(1.13477 -2.49516) rotate(0.399323)"/>
</clipPath>
</defs>
</svg>
